<mxfile host="app.diagrams.net" modified="2023-10-15T06:17:06.087Z" agent="Mozilla/5.0 (Macintosh; Intel Mac OS X 10_15_7) AppleWebKit/537.36 (KHTML, like Gecko) Chrome/115.0.0.0 Safari/537.36" etag="1zFAfn3jwUwVWWeUKQcv" version="22.0.4" type="device" pages="3">
  <diagram id="C5RBs43oDa-KdzZeNtuy" name="Page-1">
    <mxGraphModel dx="1133" dy="1356" grid="1" gridSize="10" guides="1" tooltips="1" connect="1" arrows="1" fold="1" page="1" pageScale="1" pageWidth="827" pageHeight="1169" math="0" shadow="0">
      <root>
        <mxCell id="WIyWlLk6GJQsqaUBKTNV-0" />
        <mxCell id="WIyWlLk6GJQsqaUBKTNV-1" parent="WIyWlLk6GJQsqaUBKTNV-0" />
        <mxCell id="duyKfniPUYYap-rDXnqs-3" style="edgeStyle=none;curved=1;rounded=0;orthogonalLoop=1;jettySize=auto;html=1;exitX=0.5;exitY=1;exitDx=0;exitDy=0;entryX=0.5;entryY=0;entryDx=0;entryDy=0;fontSize=12;startSize=8;endSize=8;" edge="1" parent="WIyWlLk6GJQsqaUBKTNV-1" source="duyKfniPUYYap-rDXnqs-0" target="duyKfniPUYYap-rDXnqs-1">
          <mxGeometry relative="1" as="geometry" />
        </mxCell>
        <mxCell id="duyKfniPUYYap-rDXnqs-0" value="시작" style="ellipse;whiteSpace=wrap;html=1;fontSize=13;" vertex="1" parent="WIyWlLk6GJQsqaUBKTNV-1">
          <mxGeometry x="170" y="150" width="100" height="50" as="geometry" />
        </mxCell>
        <mxCell id="duyKfniPUYYap-rDXnqs-1" value="&quot; &quot;, separator: &quot;&quot;, terminator: &quot;&quot; &lt;br&gt;출력" style="rounded=0;whiteSpace=wrap;html=1;fontSize=10;" vertex="1" parent="WIyWlLk6GJQsqaUBKTNV-1">
          <mxGeometry x="140" y="250" width="160" height="60" as="geometry" />
        </mxCell>
        <mxCell id="duyKfniPUYYap-rDXnqs-4" style="edgeStyle=none;curved=1;rounded=0;orthogonalLoop=1;jettySize=auto;html=1;exitX=0.5;exitY=1;exitDx=0;exitDy=0;entryX=0.5;entryY=0;entryDx=0;entryDy=0;fontSize=12;startSize=8;endSize=8;" edge="1" parent="WIyWlLk6GJQsqaUBKTNV-1">
          <mxGeometry relative="1" as="geometry">
            <mxPoint x="219.5" y="310" as="sourcePoint" />
            <mxPoint x="219.5" y="360" as="targetPoint" />
          </mxGeometry>
        </mxCell>
        <mxCell id="duyKfniPUYYap-rDXnqs-9" style="edgeStyle=none;curved=1;rounded=0;orthogonalLoop=1;jettySize=auto;html=1;fontSize=12;startSize=8;endSize=8;" edge="1" parent="WIyWlLk6GJQsqaUBKTNV-1">
          <mxGeometry relative="1" as="geometry">
            <mxPoint x="220" y="560" as="targetPoint" />
            <mxPoint x="220" y="530" as="sourcePoint" />
          </mxGeometry>
        </mxCell>
        <mxCell id="duyKfniPUYYap-rDXnqs-5" value="length가 8보다 작은가?" style="rhombus;whiteSpace=wrap;html=1;fontSize=11;" vertex="1" parent="WIyWlLk6GJQsqaUBKTNV-1">
          <mxGeometry x="140" y="360" width="160" height="80" as="geometry" />
        </mxCell>
        <mxCell id="duyKfniPUYYap-rDXnqs-7" value="아니오" style="text;html=1;strokeColor=none;fillColor=none;align=center;verticalAlign=middle;whiteSpace=wrap;rounded=0;fontSize=14;" vertex="1" parent="WIyWlLk6GJQsqaUBKTNV-1">
          <mxGeometry x="300" y="370" width="60" height="30" as="geometry" />
        </mxCell>
        <mxCell id="duyKfniPUYYap-rDXnqs-10" value="예" style="text;html=1;strokeColor=none;fillColor=none;align=center;verticalAlign=middle;whiteSpace=wrap;rounded=0;fontSize=14;" vertex="1" parent="WIyWlLk6GJQsqaUBKTNV-1">
          <mxGeometry x="210" y="440" width="60" height="30" as="geometry" />
        </mxCell>
        <mxCell id="duyKfniPUYYap-rDXnqs-14" style="edgeStyle=none;curved=1;rounded=0;orthogonalLoop=1;jettySize=auto;html=1;exitX=0.5;exitY=1;exitDx=0;exitDy=0;fontSize=12;startSize=8;endSize=8;" edge="1" parent="WIyWlLk6GJQsqaUBKTNV-1" source="duyKfniPUYYap-rDXnqs-12">
          <mxGeometry relative="1" as="geometry">
            <mxPoint x="220" y="700" as="targetPoint" />
          </mxGeometry>
        </mxCell>
        <mxCell id="duyKfniPUYYap-rDXnqs-12" value="width가 11보다 작은가?" style="rhombus;whiteSpace=wrap;html=1;fontSize=11;" vertex="1" parent="WIyWlLk6GJQsqaUBKTNV-1">
          <mxGeometry x="140" y="560" width="160" height="80" as="geometry" />
        </mxCell>
        <mxCell id="duyKfniPUYYap-rDXnqs-13" value="예" style="text;html=1;strokeColor=none;fillColor=none;align=center;verticalAlign=middle;whiteSpace=wrap;rounded=0;fontSize=14;" vertex="1" parent="WIyWlLk6GJQsqaUBKTNV-1">
          <mxGeometry x="210" y="640" width="60" height="30" as="geometry" />
        </mxCell>
        <mxCell id="duyKfniPUYYap-rDXnqs-15" value="width에 1을 더한다." style="rounded=0;whiteSpace=wrap;html=1;fontSize=10;" vertex="1" parent="WIyWlLk6GJQsqaUBKTNV-1">
          <mxGeometry x="140" y="700" width="160" height="60" as="geometry" />
        </mxCell>
        <mxCell id="duyKfniPUYYap-rDXnqs-20" value="" style="endArrow=none;html=1;rounded=0;fontSize=12;startSize=8;endSize=8;curved=1;entryX=0.5;entryY=1;entryDx=0;entryDy=0;" edge="1" parent="WIyWlLk6GJQsqaUBKTNV-1" target="duyKfniPUYYap-rDXnqs-15">
          <mxGeometry width="50" height="50" relative="1" as="geometry">
            <mxPoint x="220" y="810" as="sourcePoint" />
            <mxPoint x="250" y="760" as="targetPoint" />
          </mxGeometry>
        </mxCell>
        <mxCell id="duyKfniPUYYap-rDXnqs-21" value="" style="endArrow=none;html=1;rounded=0;fontSize=12;startSize=8;endSize=8;curved=1;" edge="1" parent="WIyWlLk6GJQsqaUBKTNV-1">
          <mxGeometry width="50" height="50" relative="1" as="geometry">
            <mxPoint x="90" y="810" as="sourcePoint" />
            <mxPoint x="220" y="810" as="targetPoint" />
          </mxGeometry>
        </mxCell>
        <mxCell id="duyKfniPUYYap-rDXnqs-22" value="" style="endArrow=none;html=1;rounded=0;fontSize=12;startSize=8;endSize=8;curved=1;" edge="1" parent="WIyWlLk6GJQsqaUBKTNV-1">
          <mxGeometry width="50" height="50" relative="1" as="geometry">
            <mxPoint x="90" y="810" as="sourcePoint" />
            <mxPoint x="90" y="450" as="targetPoint" />
          </mxGeometry>
        </mxCell>
        <mxCell id="duyKfniPUYYap-rDXnqs-24" value="" style="endArrow=none;html=1;rounded=0;fontSize=12;startSize=8;endSize=8;curved=1;" edge="1" parent="WIyWlLk6GJQsqaUBKTNV-1">
          <mxGeometry width="50" height="50" relative="1" as="geometry">
            <mxPoint x="300" y="599.5" as="sourcePoint" />
            <mxPoint x="370" y="600" as="targetPoint" />
          </mxGeometry>
        </mxCell>
        <mxCell id="duyKfniPUYYap-rDXnqs-25" value="" style="endArrow=none;html=1;rounded=0;fontSize=12;startSize=8;endSize=8;curved=1;" edge="1" parent="WIyWlLk6GJQsqaUBKTNV-1">
          <mxGeometry width="50" height="50" relative="1" as="geometry">
            <mxPoint x="370" y="880" as="sourcePoint" />
            <mxPoint x="370" y="600" as="targetPoint" />
          </mxGeometry>
        </mxCell>
        <mxCell id="duyKfniPUYYap-rDXnqs-26" value="아니오" style="text;html=1;strokeColor=none;fillColor=none;align=center;verticalAlign=middle;whiteSpace=wrap;rounded=0;fontSize=14;" vertex="1" parent="WIyWlLk6GJQsqaUBKTNV-1">
          <mxGeometry x="300" y="570" width="60" height="30" as="geometry" />
        </mxCell>
        <mxCell id="duyKfniPUYYap-rDXnqs-27" value="" style="endArrow=none;html=1;rounded=0;fontSize=12;startSize=8;endSize=8;curved=1;exitX=1;exitY=0.5;exitDx=0;exitDy=0;" edge="1" parent="WIyWlLk6GJQsqaUBKTNV-1" source="duyKfniPUYYap-rDXnqs-28">
          <mxGeometry width="50" height="50" relative="1" as="geometry">
            <mxPoint x="310" y="880" as="sourcePoint" />
            <mxPoint x="370" y="880" as="targetPoint" />
          </mxGeometry>
        </mxCell>
        <mxCell id="duyKfniPUYYap-rDXnqs-28" value="&quot;&quot; 출력 후 length에 1을 더한다." style="rounded=0;whiteSpace=wrap;html=1;fontSize=10;" vertex="1" parent="WIyWlLk6GJQsqaUBKTNV-1">
          <mxGeometry x="140" y="850" width="160" height="60" as="geometry" />
        </mxCell>
        <mxCell id="duyKfniPUYYap-rDXnqs-33" value="" style="endArrow=none;html=1;rounded=0;fontSize=12;startSize=8;endSize=8;curved=1;entryX=0;entryY=0.5;entryDx=0;entryDy=0;" edge="1" parent="WIyWlLk6GJQsqaUBKTNV-1" target="duyKfniPUYYap-rDXnqs-28">
          <mxGeometry width="50" height="50" relative="1" as="geometry">
            <mxPoint x="40" y="880" as="sourcePoint" />
            <mxPoint x="130" y="880" as="targetPoint" />
          </mxGeometry>
        </mxCell>
        <mxCell id="duyKfniPUYYap-rDXnqs-34" value="" style="endArrow=none;html=1;rounded=0;fontSize=12;startSize=8;endSize=8;curved=1;" edge="1" parent="WIyWlLk6GJQsqaUBKTNV-1">
          <mxGeometry width="50" height="50" relative="1" as="geometry">
            <mxPoint x="40" y="880" as="sourcePoint" />
            <mxPoint x="40" y="220" as="targetPoint" />
          </mxGeometry>
        </mxCell>
        <mxCell id="duyKfniPUYYap-rDXnqs-37" value="" style="endArrow=none;html=1;rounded=0;fontSize=12;startSize=8;endSize=8;curved=1;" edge="1" parent="WIyWlLk6GJQsqaUBKTNV-1">
          <mxGeometry width="50" height="50" relative="1" as="geometry">
            <mxPoint x="300" y="399" as="sourcePoint" />
            <mxPoint x="420" y="400" as="targetPoint" />
          </mxGeometry>
        </mxCell>
        <mxCell id="duyKfniPUYYap-rDXnqs-38" value="" style="endArrow=none;html=1;rounded=0;fontSize=12;startSize=8;endSize=8;curved=1;" edge="1" parent="WIyWlLk6GJQsqaUBKTNV-1">
          <mxGeometry width="50" height="50" relative="1" as="geometry">
            <mxPoint x="420" y="1000" as="sourcePoint" />
            <mxPoint x="420" y="400" as="targetPoint" />
          </mxGeometry>
        </mxCell>
        <mxCell id="duyKfniPUYYap-rDXnqs-39" value="&quot;*&quot;, terminator: &quot;&quot; &lt;br&gt;출력" style="rounded=0;whiteSpace=wrap;html=1;fontSize=10;" vertex="1" parent="WIyWlLk6GJQsqaUBKTNV-1">
          <mxGeometry x="140" y="470" width="160" height="60" as="geometry" />
        </mxCell>
        <mxCell id="duyKfniPUYYap-rDXnqs-41" value="" style="endArrow=none;html=1;rounded=0;fontSize=12;startSize=8;endSize=8;curved=1;" edge="1" parent="WIyWlLk6GJQsqaUBKTNV-1" source="duyKfniPUYYap-rDXnqs-39">
          <mxGeometry width="50" height="50" relative="1" as="geometry">
            <mxPoint x="220" y="429.28932188134524" as="sourcePoint" />
            <mxPoint x="220" y="440" as="targetPoint" />
          </mxGeometry>
        </mxCell>
        <mxCell id="duyKfniPUYYap-rDXnqs-42" value="" style="endArrow=classic;html=1;rounded=0;fontSize=12;startSize=8;endSize=8;curved=1;" edge="1" parent="WIyWlLk6GJQsqaUBKTNV-1">
          <mxGeometry width="50" height="50" relative="1" as="geometry">
            <mxPoint x="40" y="220" as="sourcePoint" />
            <mxPoint x="220" y="220" as="targetPoint" />
          </mxGeometry>
        </mxCell>
        <mxCell id="duyKfniPUYYap-rDXnqs-43" value="" style="endArrow=classic;html=1;rounded=0;fontSize=12;startSize=8;endSize=8;curved=1;" edge="1" parent="WIyWlLk6GJQsqaUBKTNV-1">
          <mxGeometry width="50" height="50" relative="1" as="geometry">
            <mxPoint x="90" y="450" as="sourcePoint" />
            <mxPoint x="220" y="450" as="targetPoint" />
          </mxGeometry>
        </mxCell>
        <mxCell id="duyKfniPUYYap-rDXnqs-44" value="" style="endArrow=classic;html=1;rounded=0;fontSize=12;startSize=8;endSize=8;curved=1;entryX=1;entryY=0.5;entryDx=0;entryDy=0;" edge="1" parent="WIyWlLk6GJQsqaUBKTNV-1" target="duyKfniPUYYap-rDXnqs-45">
          <mxGeometry width="50" height="50" relative="1" as="geometry">
            <mxPoint x="420" y="1000" as="sourcePoint" />
            <mxPoint x="290" y="1000" as="targetPoint" />
          </mxGeometry>
        </mxCell>
        <mxCell id="duyKfniPUYYap-rDXnqs-45" value="끝" style="ellipse;whiteSpace=wrap;html=1;fontSize=13;" vertex="1" parent="WIyWlLk6GJQsqaUBKTNV-1">
          <mxGeometry x="170" y="970" width="100" height="60" as="geometry" />
        </mxCell>
        <mxCell id="duyKfniPUYYap-rDXnqs-46" style="edgeStyle=none;curved=1;rounded=0;orthogonalLoop=1;jettySize=auto;html=1;exitX=0.5;exitY=1;exitDx=0;exitDy=0;entryX=0.5;entryY=0;entryDx=0;entryDy=0;fontSize=12;startSize=8;endSize=8;" edge="1" parent="WIyWlLk6GJQsqaUBKTNV-1" source="duyKfniPUYYap-rDXnqs-47" target="duyKfniPUYYap-rDXnqs-48">
          <mxGeometry relative="1" as="geometry" />
        </mxCell>
        <mxCell id="duyKfniPUYYap-rDXnqs-47" value="시작" style="ellipse;whiteSpace=wrap;html=1;fontSize=13;" vertex="1" parent="WIyWlLk6GJQsqaUBKTNV-1">
          <mxGeometry x="560" y="150" width="100" height="50" as="geometry" />
        </mxCell>
        <mxCell id="duyKfniPUYYap-rDXnqs-48" value="&quot; &amp;nbsp; &amp;nbsp; | |&quot;, separator: &quot;&quot;&lt;br&gt;출력" style="rounded=0;whiteSpace=wrap;html=1;fontSize=10;" vertex="1" parent="WIyWlLk6GJQsqaUBKTNV-1">
          <mxGeometry x="530" y="250" width="160" height="60" as="geometry" />
        </mxCell>
        <mxCell id="duyKfniPUYYap-rDXnqs-49" style="edgeStyle=none;curved=1;rounded=0;orthogonalLoop=1;jettySize=auto;html=1;exitX=0.5;exitY=1;exitDx=0;exitDy=0;entryX=0.5;entryY=0;entryDx=0;entryDy=0;fontSize=12;startSize=8;endSize=8;" edge="1" parent="WIyWlLk6GJQsqaUBKTNV-1">
          <mxGeometry relative="1" as="geometry">
            <mxPoint x="609.5" y="310" as="sourcePoint" />
            <mxPoint x="609.5" y="360" as="targetPoint" />
          </mxGeometry>
        </mxCell>
        <mxCell id="duyKfniPUYYap-rDXnqs-64" style="edgeStyle=none;curved=1;rounded=0;orthogonalLoop=1;jettySize=auto;html=1;exitX=0.5;exitY=1;exitDx=0;exitDy=0;fontSize=12;startSize=8;endSize=8;" edge="1" parent="WIyWlLk6GJQsqaUBKTNV-1" source="duyKfniPUYYap-rDXnqs-50" target="duyKfniPUYYap-rDXnqs-53">
          <mxGeometry relative="1" as="geometry" />
        </mxCell>
        <mxCell id="duyKfniPUYYap-rDXnqs-50" value="count가 4보다 작은가?" style="rhombus;whiteSpace=wrap;html=1;fontSize=11;" vertex="1" parent="WIyWlLk6GJQsqaUBKTNV-1">
          <mxGeometry x="530" y="360" width="160" height="80" as="geometry" />
        </mxCell>
        <mxCell id="duyKfniPUYYap-rDXnqs-51" value="아니오" style="text;html=1;strokeColor=none;fillColor=none;align=center;verticalAlign=middle;whiteSpace=wrap;rounded=0;fontSize=14;" vertex="1" parent="WIyWlLk6GJQsqaUBKTNV-1">
          <mxGeometry x="690" y="370" width="60" height="30" as="geometry" />
        </mxCell>
        <mxCell id="duyKfniPUYYap-rDXnqs-52" value="예" style="text;html=1;strokeColor=none;fillColor=none;align=center;verticalAlign=middle;whiteSpace=wrap;rounded=0;fontSize=14;" vertex="1" parent="WIyWlLk6GJQsqaUBKTNV-1">
          <mxGeometry x="540" y="510" width="60" height="30" as="geometry" />
        </mxCell>
        <mxCell id="duyKfniPUYYap-rDXnqs-53" value="width에 1을 더한다." style="rounded=0;whiteSpace=wrap;html=1;fontSize=10;" vertex="1" parent="WIyWlLk6GJQsqaUBKTNV-1">
          <mxGeometry x="530" y="540" width="160" height="60" as="geometry" />
        </mxCell>
        <mxCell id="duyKfniPUYYap-rDXnqs-54" value="" style="endArrow=none;html=1;rounded=0;fontSize=12;startSize=8;endSize=8;curved=1;entryX=0.5;entryY=1;entryDx=0;entryDy=0;" edge="1" parent="WIyWlLk6GJQsqaUBKTNV-1" target="duyKfniPUYYap-rDXnqs-53">
          <mxGeometry width="50" height="50" relative="1" as="geometry">
            <mxPoint x="610" y="650" as="sourcePoint" />
            <mxPoint x="640" y="760" as="targetPoint" />
          </mxGeometry>
        </mxCell>
        <mxCell id="duyKfniPUYYap-rDXnqs-55" value="" style="endArrow=none;html=1;rounded=0;fontSize=12;startSize=8;endSize=8;curved=1;" edge="1" parent="WIyWlLk6GJQsqaUBKTNV-1">
          <mxGeometry width="50" height="50" relative="1" as="geometry">
            <mxPoint x="480" y="650" as="sourcePoint" />
            <mxPoint x="610" y="650" as="targetPoint" />
          </mxGeometry>
        </mxCell>
        <mxCell id="duyKfniPUYYap-rDXnqs-56" value="" style="endArrow=none;html=1;rounded=0;fontSize=12;startSize=8;endSize=8;curved=1;" edge="1" parent="WIyWlLk6GJQsqaUBKTNV-1">
          <mxGeometry width="50" height="50" relative="1" as="geometry">
            <mxPoint x="480" y="650" as="sourcePoint" />
            <mxPoint x="480" y="230" as="targetPoint" />
          </mxGeometry>
        </mxCell>
        <mxCell id="duyKfniPUYYap-rDXnqs-57" value="" style="endArrow=none;html=1;rounded=0;fontSize=12;startSize=8;endSize=8;curved=1;" edge="1" parent="WIyWlLk6GJQsqaUBKTNV-1">
          <mxGeometry width="50" height="50" relative="1" as="geometry">
            <mxPoint x="690" y="399" as="sourcePoint" />
            <mxPoint x="810" y="400" as="targetPoint" />
          </mxGeometry>
        </mxCell>
        <mxCell id="duyKfniPUYYap-rDXnqs-58" value="" style="endArrow=none;html=1;rounded=0;fontSize=12;startSize=8;endSize=8;curved=1;" edge="1" parent="WIyWlLk6GJQsqaUBKTNV-1">
          <mxGeometry width="50" height="50" relative="1" as="geometry">
            <mxPoint x="810" y="700" as="sourcePoint" />
            <mxPoint x="810" y="400" as="targetPoint" />
          </mxGeometry>
        </mxCell>
        <mxCell id="duyKfniPUYYap-rDXnqs-60" value="" style="endArrow=classic;html=1;rounded=0;fontSize=12;startSize=8;endSize=8;curved=1;" edge="1" parent="WIyWlLk6GJQsqaUBKTNV-1">
          <mxGeometry width="50" height="50" relative="1" as="geometry">
            <mxPoint x="480" y="230" as="sourcePoint" />
            <mxPoint x="610" y="230" as="targetPoint" />
          </mxGeometry>
        </mxCell>
        <mxCell id="duyKfniPUYYap-rDXnqs-61" value="" style="endArrow=classic;html=1;rounded=0;fontSize=12;startSize=8;endSize=8;curved=1;entryX=1;entryY=0.5;entryDx=0;entryDy=0;" edge="1" parent="WIyWlLk6GJQsqaUBKTNV-1" target="duyKfniPUYYap-rDXnqs-62">
          <mxGeometry width="50" height="50" relative="1" as="geometry">
            <mxPoint x="810" y="700" as="sourcePoint" />
            <mxPoint x="680" y="700" as="targetPoint" />
          </mxGeometry>
        </mxCell>
        <mxCell id="duyKfniPUYYap-rDXnqs-62" value="끝" style="ellipse;whiteSpace=wrap;html=1;fontSize=13;" vertex="1" parent="WIyWlLk6GJQsqaUBKTNV-1">
          <mxGeometry x="560" y="670" width="100" height="60" as="geometry" />
        </mxCell>
        <mxCell id="duyKfniPUYYap-rDXnqs-65" value="makeIceCream" style="text;html=1;strokeColor=none;fillColor=none;align=center;verticalAlign=middle;whiteSpace=wrap;rounded=0;fontSize=16;" vertex="1" parent="WIyWlLk6GJQsqaUBKTNV-1">
          <mxGeometry x="60" y="60" width="60" height="30" as="geometry" />
        </mxCell>
        <mxCell id="duyKfniPUYYap-rDXnqs-66" value="makeBar" style="text;html=1;strokeColor=none;fillColor=none;align=center;verticalAlign=middle;whiteSpace=wrap;rounded=0;fontSize=16;" vertex="1" parent="WIyWlLk6GJQsqaUBKTNV-1">
          <mxGeometry x="480" y="60" width="60" height="30" as="geometry" />
        </mxCell>
      </root>
    </mxGraphModel>
  </diagram>
  <diagram name="Page-2" id="orygHgJdh5BA69Uv3dQG">
    <mxGraphModel dx="659" dy="642" grid="1" gridSize="10" guides="1" tooltips="1" connect="1" arrows="1" fold="1" page="1" pageScale="1" pageWidth="827" pageHeight="1169" math="0" shadow="0">
      <root>
        <mxCell id="PCOXX7_Mlz93BpKbd9lb-0" />
        <mxCell id="PCOXX7_Mlz93BpKbd9lb-1" parent="PCOXX7_Mlz93BpKbd9lb-0" />
        <mxCell id="-xplYCMSM-Ghn7wqVhGw-0" style="edgeStyle=none;curved=1;rounded=0;orthogonalLoop=1;jettySize=auto;html=1;exitX=0.5;exitY=1;exitDx=0;exitDy=0;entryX=0.5;entryY=0;entryDx=0;entryDy=0;fontSize=12;startSize=8;endSize=8;" edge="1" parent="PCOXX7_Mlz93BpKbd9lb-1" source="-xplYCMSM-Ghn7wqVhGw-1" target="-xplYCMSM-Ghn7wqVhGw-2">
          <mxGeometry relative="1" as="geometry" />
        </mxCell>
        <mxCell id="-xplYCMSM-Ghn7wqVhGw-1" value="시작" style="ellipse;whiteSpace=wrap;html=1;fontSize=13;" vertex="1" parent="PCOXX7_Mlz93BpKbd9lb-1">
          <mxGeometry x="327" y="27" width="100" height="50" as="geometry" />
        </mxCell>
        <mxCell id="-xplYCMSM-Ghn7wqVhGw-2" value="num = Int.random(in: 1...45)" style="rounded=0;whiteSpace=wrap;html=1;fontSize=10;" vertex="1" parent="PCOXX7_Mlz93BpKbd9lb-1">
          <mxGeometry x="297" y="350" width="160" height="60" as="geometry" />
        </mxCell>
        <mxCell id="-xplYCMSM-Ghn7wqVhGw-3" style="edgeStyle=none;curved=1;rounded=0;orthogonalLoop=1;jettySize=auto;html=1;exitX=0.5;exitY=1;exitDx=0;exitDy=0;entryX=0.5;entryY=0;entryDx=0;entryDy=0;fontSize=12;startSize=8;endSize=8;" edge="1" parent="PCOXX7_Mlz93BpKbd9lb-1">
          <mxGeometry relative="1" as="geometry">
            <mxPoint x="376.5" y="410" as="sourcePoint" />
            <mxPoint x="376.5" y="460" as="targetPoint" />
          </mxGeometry>
        </mxCell>
        <mxCell id="-xplYCMSM-Ghn7wqVhGw-5" value="num이 집합에 포함되어있는가?" style="rhombus;whiteSpace=wrap;html=1;fontSize=11;" vertex="1" parent="PCOXX7_Mlz93BpKbd9lb-1">
          <mxGeometry x="297" y="460" width="160" height="80" as="geometry" />
        </mxCell>
        <mxCell id="-xplYCMSM-Ghn7wqVhGw-6" value="아니오" style="text;html=1;strokeColor=none;fillColor=none;align=center;verticalAlign=middle;whiteSpace=wrap;rounded=0;fontSize=14;" vertex="1" parent="PCOXX7_Mlz93BpKbd9lb-1">
          <mxGeometry x="457" y="470" width="60" height="30" as="geometry" />
        </mxCell>
        <mxCell id="-xplYCMSM-Ghn7wqVhGw-7" value="예" style="text;html=1;strokeColor=none;fillColor=none;align=center;verticalAlign=middle;whiteSpace=wrap;rounded=0;fontSize=14;" vertex="1" parent="PCOXX7_Mlz93BpKbd9lb-1">
          <mxGeometry x="327" y="540" width="60" height="30" as="geometry" />
        </mxCell>
        <mxCell id="-xplYCMSM-Ghn7wqVhGw-8" value="집합.insert(num)" style="rounded=0;whiteSpace=wrap;html=1;fontSize=10;" vertex="1" parent="PCOXX7_Mlz93BpKbd9lb-1">
          <mxGeometry x="297" y="770" width="160" height="60" as="geometry" />
        </mxCell>
        <mxCell id="-xplYCMSM-Ghn7wqVhGw-10" value="" style="endArrow=none;html=1;rounded=0;fontSize=12;startSize=8;endSize=8;curved=1;" edge="1" parent="PCOXX7_Mlz93BpKbd9lb-1">
          <mxGeometry width="50" height="50" relative="1" as="geometry">
            <mxPoint x="247" y="750" as="sourcePoint" />
            <mxPoint x="377" y="750" as="targetPoint" />
          </mxGeometry>
        </mxCell>
        <mxCell id="-xplYCMSM-Ghn7wqVhGw-11" value="" style="endArrow=none;html=1;rounded=0;fontSize=12;startSize=8;endSize=8;curved=1;" edge="1" parent="PCOXX7_Mlz93BpKbd9lb-1">
          <mxGeometry width="50" height="50" relative="1" as="geometry">
            <mxPoint x="247" y="750" as="sourcePoint" />
            <mxPoint x="247" y="190" as="targetPoint" />
          </mxGeometry>
        </mxCell>
        <mxCell id="-xplYCMSM-Ghn7wqVhGw-12" value="" style="endArrow=none;html=1;rounded=0;fontSize=12;startSize=8;endSize=8;curved=1;" edge="1" parent="PCOXX7_Mlz93BpKbd9lb-1">
          <mxGeometry width="50" height="50" relative="1" as="geometry">
            <mxPoint x="457" y="500" as="sourcePoint" />
            <mxPoint x="577" y="501" as="targetPoint" />
          </mxGeometry>
        </mxCell>
        <mxCell id="-xplYCMSM-Ghn7wqVhGw-13" value="" style="endArrow=none;html=1;rounded=0;fontSize=12;startSize=8;endSize=8;curved=1;" edge="1" parent="PCOXX7_Mlz93BpKbd9lb-1">
          <mxGeometry width="50" height="50" relative="1" as="geometry">
            <mxPoint x="577" y="801" as="sourcePoint" />
            <mxPoint x="577" y="501" as="targetPoint" />
          </mxGeometry>
        </mxCell>
        <mxCell id="-xplYCMSM-Ghn7wqVhGw-14" value="" style="endArrow=classic;html=1;rounded=0;fontSize=12;startSize=8;endSize=8;curved=1;" edge="1" parent="PCOXX7_Mlz93BpKbd9lb-1">
          <mxGeometry width="50" height="50" relative="1" as="geometry">
            <mxPoint x="247" y="190" as="sourcePoint" />
            <mxPoint x="377" y="190" as="targetPoint" />
          </mxGeometry>
        </mxCell>
        <mxCell id="-xplYCMSM-Ghn7wqVhGw-15" value="" style="endArrow=classic;html=1;rounded=0;fontSize=12;startSize=8;endSize=8;curved=1;" edge="1" parent="PCOXX7_Mlz93BpKbd9lb-1">
          <mxGeometry width="50" height="50" relative="1" as="geometry">
            <mxPoint x="577" y="801" as="sourcePoint" />
            <mxPoint x="456.9999999999998" y="801" as="targetPoint" />
          </mxGeometry>
        </mxCell>
        <mxCell id="-xplYCMSM-Ghn7wqVhGw-18" value="집합.count가 6 미만인가?" style="rhombus;whiteSpace=wrap;html=1;fontSize=11;" vertex="1" parent="PCOXX7_Mlz93BpKbd9lb-1">
          <mxGeometry x="297" y="200" width="160" height="80" as="geometry" />
        </mxCell>
        <mxCell id="-xplYCMSM-Ghn7wqVhGw-19" value="예" style="text;html=1;strokeColor=none;fillColor=none;align=center;verticalAlign=middle;whiteSpace=wrap;rounded=0;fontSize=14;" vertex="1" parent="PCOXX7_Mlz93BpKbd9lb-1">
          <mxGeometry x="327" y="280" width="60" height="30" as="geometry" />
        </mxCell>
        <mxCell id="-xplYCMSM-Ghn7wqVhGw-21" value="아니오" style="text;html=1;strokeColor=none;fillColor=none;align=center;verticalAlign=middle;whiteSpace=wrap;rounded=0;fontSize=14;" vertex="1" parent="PCOXX7_Mlz93BpKbd9lb-1">
          <mxGeometry x="457" y="210" width="60" height="30" as="geometry" />
        </mxCell>
        <mxCell id="-xplYCMSM-Ghn7wqVhGw-22" value="" style="endArrow=none;html=1;rounded=0;fontSize=12;startSize=8;endSize=8;curved=1;" edge="1" parent="PCOXX7_Mlz93BpKbd9lb-1">
          <mxGeometry width="50" height="50" relative="1" as="geometry">
            <mxPoint x="457" y="239" as="sourcePoint" />
            <mxPoint x="590" y="240" as="targetPoint" />
          </mxGeometry>
        </mxCell>
        <mxCell id="-xplYCMSM-Ghn7wqVhGw-25" value="" style="endArrow=none;html=1;rounded=0;fontSize=12;startSize=8;endSize=8;curved=1;" edge="1" parent="PCOXX7_Mlz93BpKbd9lb-1">
          <mxGeometry width="50" height="50" relative="1" as="geometry">
            <mxPoint x="377" y="750" as="sourcePoint" />
            <mxPoint x="376.55" y="540" as="targetPoint" />
          </mxGeometry>
        </mxCell>
        <mxCell id="-xplYCMSM-Ghn7wqVhGw-26" value="" style="endArrow=none;html=1;rounded=0;fontSize=12;startSize=8;endSize=8;curved=1;" edge="1" parent="PCOXX7_Mlz93BpKbd9lb-1">
          <mxGeometry width="50" height="50" relative="1" as="geometry">
            <mxPoint x="590" y="910" as="sourcePoint" />
            <mxPoint x="590" y="240" as="targetPoint" />
          </mxGeometry>
        </mxCell>
        <mxCell id="-xplYCMSM-Ghn7wqVhGw-27" value="" style="endArrow=classic;html=1;rounded=0;fontSize=12;startSize=8;endSize=8;curved=1;entryX=1;entryY=0.5;entryDx=0;entryDy=0;" edge="1" parent="PCOXX7_Mlz93BpKbd9lb-1" target="-xplYCMSM-Ghn7wqVhGw-28">
          <mxGeometry width="50" height="50" relative="1" as="geometry">
            <mxPoint x="590" y="910" as="sourcePoint" />
            <mxPoint x="463" y="910" as="targetPoint" />
          </mxGeometry>
        </mxCell>
        <mxCell id="-xplYCMSM-Ghn7wqVhGw-33" style="edgeStyle=none;curved=1;rounded=0;orthogonalLoop=1;jettySize=auto;html=1;fontSize=12;startSize=8;endSize=8;" edge="1" parent="PCOXX7_Mlz93BpKbd9lb-1" source="-xplYCMSM-Ghn7wqVhGw-28" target="-xplYCMSM-Ghn7wqVhGw-32">
          <mxGeometry relative="1" as="geometry" />
        </mxCell>
        <mxCell id="-xplYCMSM-Ghn7wqVhGw-28" value="집합 출력" style="rounded=0;whiteSpace=wrap;html=1;fontSize=10;" vertex="1" parent="PCOXX7_Mlz93BpKbd9lb-1">
          <mxGeometry x="297" y="880" width="160" height="60" as="geometry" />
        </mxCell>
        <mxCell id="-xplYCMSM-Ghn7wqVhGw-29" value="" style="endArrow=none;html=1;rounded=0;fontSize=12;startSize=8;endSize=8;curved=1;" edge="1" parent="PCOXX7_Mlz93BpKbd9lb-1">
          <mxGeometry width="50" height="50" relative="1" as="geometry">
            <mxPoint x="210" y="800" as="sourcePoint" />
            <mxPoint x="297" y="799.55" as="targetPoint" />
          </mxGeometry>
        </mxCell>
        <mxCell id="-xplYCMSM-Ghn7wqVhGw-30" value="" style="endArrow=none;html=1;rounded=0;fontSize=12;startSize=8;endSize=8;curved=1;" edge="1" parent="PCOXX7_Mlz93BpKbd9lb-1">
          <mxGeometry width="50" height="50" relative="1" as="geometry">
            <mxPoint x="210" y="800" as="sourcePoint" />
            <mxPoint x="210" y="180" as="targetPoint" />
          </mxGeometry>
        </mxCell>
        <mxCell id="-xplYCMSM-Ghn7wqVhGw-31" value="" style="endArrow=classic;html=1;rounded=0;fontSize=12;startSize=8;endSize=8;curved=1;" edge="1" parent="PCOXX7_Mlz93BpKbd9lb-1">
          <mxGeometry width="50" height="50" relative="1" as="geometry">
            <mxPoint x="210" y="180" as="sourcePoint" />
            <mxPoint x="377" y="180" as="targetPoint" />
          </mxGeometry>
        </mxCell>
        <mxCell id="-xplYCMSM-Ghn7wqVhGw-32" value="끝" style="ellipse;whiteSpace=wrap;html=1;fontSize=13;" vertex="1" parent="PCOXX7_Mlz93BpKbd9lb-1">
          <mxGeometry x="330" y="1000" width="97" height="50" as="geometry" />
        </mxCell>
        <mxCell id="-xplYCMSM-Ghn7wqVhGw-34" value="var 집합: Set&amp;lt;Int&amp;gt; = []" style="rounded=0;whiteSpace=wrap;html=1;fontSize=10;" vertex="1" parent="PCOXX7_Mlz93BpKbd9lb-1">
          <mxGeometry x="297" y="90" width="160" height="60" as="geometry" />
        </mxCell>
      </root>
    </mxGraphModel>
  </diagram>
  <diagram id="1MtHyz2xXhRIhG6pqdN6" name="페이지-3">
    <mxGraphModel dx="510" dy="610" grid="0" gridSize="10" guides="1" tooltips="1" connect="1" arrows="1" fold="1" page="0" pageScale="1" pageWidth="827" pageHeight="1169" math="0" shadow="0">
      <root>
        <mxCell id="0" />
        <mxCell id="1" parent="0" />
      </root>
    </mxGraphModel>
  </diagram>
</mxfile>
